# Blender v2.92.0 OBJ File: ''
# www.blender.org
mtllib Yorku Logo.mtl
o Cube
v 0.234009 0.685789 -0.685789
v 0.234009 -0.685789 -0.685789
v 0.234009 0.685789 0.685789
v 0.234009 -0.685789 0.685789
v -0.234009 0.685789 -0.685789
v -0.234009 -0.685789 -0.685789
v -0.234009 0.685789 0.685789
v -0.234009 -0.685789 0.685789
v -0.234009 0.054933 0.180432
v -0.234009 -0.234656 -0.199024
v 0.234009 -0.157685 -0.365441
v 0.234009 -0.053760 0.047166
v -0.234009 -0.157685 -0.365441
v -0.234009 -0.053760 0.047166
v 0.234009 0.054933 0.180432
v 0.234009 -0.234656 -0.199024
v -0.234009 -0.168255 -0.509816
v 0.234009 -0.168255 -0.509816
v 0.234009 -0.232308 -0.220758
v -0.234009 -0.232308 -0.220758
v -0.234009 -0.060748 -0.414433
v -0.234009 0.685789 0.180432
v 0.234009 -0.060748 -0.414433
v 0.234009 0.685789 0.180432
v 0.234009 -0.216148 -0.486304
v -0.234009 -0.216148 -0.486304
v -0.234009 -0.232855 -0.140446
v 0.234009 -0.232855 -0.140446
v -0.234009 -0.169569 -0.018246
v 0.234009 -0.169569 -0.018246
v 0.234009 -0.234810 -0.158059
v -0.234009 -0.234810 -0.158059
v -0.234009 0.685789 0.058233
v 0.234009 -0.040839 -0.418876
v -0.234009 -0.040839 -0.418876
v 0.234009 0.685789 0.058233
v 0.234009 -0.182165 -0.031703
v -0.234009 -0.182165 -0.031703
v -0.234009 -0.235460 -0.176191
v 0.234009 -0.235460 -0.176191
v -0.234009 -0.180781 -0.341371
v 0.234009 -0.180781 -0.341371
v -0.234009 -0.070652 0.042781
v 0.234009 -0.070652 0.042781
v 0.234009 0.089386 0.058233
v -0.234009 0.089386 0.058233
v 0.234009 -0.169569 -0.353995
v -0.234009 -0.169569 -0.353995
v 0.234009 0.099230 -0.429319
v -0.234009 0.099230 -0.429319
v 0.234009 -0.191224 -0.327578
v -0.234009 -0.191224 -0.327578
v -0.234009 -0.278527 0.070702
v 0.234009 -0.278527 0.070702
v -0.234009 -0.115258 -0.528080
v 0.234009 -0.115258 -0.528080
v -0.234009 0.685789 -0.429319
v 0.234009 0.685789 -0.429319
v 0.234009 -0.239642 0.101777
v -0.234009 -0.239642 0.101777
v 0.234009 -0.193411 -0.045679
v -0.234009 -0.193411 -0.045679
v -0.234009 -0.258634 -0.457531
v 0.234009 -0.057459 -0.541110
v -0.234009 -0.057459 -0.541110
v 0.234009 -0.258634 -0.457531
v -0.234009 0.685789 -0.551519
v -0.234009 -0.200801 -0.312625
v 0.234009 -0.200801 -0.312625
v 0.234009 0.685789 -0.551519
v 0.234009 -0.295413 -0.423485
v -0.234009 -0.295413 -0.423485
v -0.234009 -0.079660 -0.408999
v 0.234009 -0.079660 -0.408999
v -0.234009 -0.311055 0.035886
v 0.234009 -0.311055 0.035886
v 0.234009 0.071339 -0.551519
v -0.234009 0.071339 -0.551519
v -0.234009 -0.203313 -0.060174
v 0.234009 -0.203313 -0.060174
v -0.234009 -0.326182 -0.384152
v 0.234009 -0.326182 -0.384152
v -0.234009 0.073459 -0.429097
v 0.234009 0.073459 -0.429097
v 0.234009 -0.194262 0.128523
v -0.234009 -0.194262 0.128523
v -0.234009 -0.337362 -0.002082
v 0.234009 -0.337362 -0.002082
v -0.234009 -0.209415 -0.296520
v 0.234009 -0.086223 0.037543
v 0.234009 -0.209415 -0.296520
v -0.234009 -0.086223 0.037543
v -0.234009 -0.097570 -0.402490
v 0.234009 -0.097570 -0.402490
v 0.234009 0.059300 0.057965
v -0.234009 0.059300 0.057965
v -0.234009 -0.350638 -0.339520
v 0.234009 -0.350638 -0.339520
v 0.234009 -0.211876 -0.075189
v -0.234009 -0.211876 -0.075189
v -0.234009 -0.357585 -0.042613
v 0.234009 -0.357585 -0.042613
v 0.234009 -0.216970 -0.279273
v -0.234009 -0.216970 -0.279273
v -0.234009 -0.142252 0.150350
v 0.234009 0.048651 -0.428378
v 0.234009 -0.142252 0.150350
v -0.234009 0.048651 -0.428378
v 0.234009 -0.368481 -0.289576
v -0.234009 -0.368481 -0.289576
v 0.234009 -0.219106 -0.090724
v -0.234009 -0.219106 -0.090724
v 0.234009 -0.083473 0.166670
v -0.234009 -0.083473 0.166670
v -0.234009 -0.371861 -0.085119
v 0.234009 -0.371861 -0.085119
v 0.234009 0.004841 -0.548919
v -0.234009 0.004841 -0.548919
v -0.234009 -0.223368 -0.260890
v 0.234009 -0.100723 0.031404
v -0.234009 -0.100723 0.031404
v 0.234009 -0.223368 -0.260890
v 0.234009 0.032040 0.057130
v 0.234009 -0.379408 -0.234306
v -0.234009 0.032040 0.057130
v -0.234009 -0.379408 -0.234306
v 0.234009 -0.114471 -0.394826
v -0.234009 -0.114471 -0.394826
v -0.234009 -0.380327 -0.129010
v 0.234009 -0.380327 -0.129010
v -0.234009 -0.017791 0.176894
v 0.234009 -0.017791 0.176894
v 0.234009 -0.225009 -0.106778
v -0.234009 -0.225009 -0.106778
v 0.234009 -0.114402 0.024317
v -0.234009 -0.114402 0.024317
v -0.234009 0.024812 -0.427078
v 0.234009 0.024812 -0.427078
v -0.234009 -0.228513 -0.241382
v 0.234009 -0.228513 -0.241382
v -0.234009 -0.383118 -0.173697
v 0.234009 -0.383118 -0.173697
v 0.234009 -0.127512 0.016235
v -0.234009 -0.127512 0.016235
v -0.234009 -0.130358 -0.385924
v 0.234009 -0.130358 -0.385924
v 0.234009 0.007354 0.055680
v -0.234009 0.007354 0.055680
v 0.234009 -0.229590 -0.123352
v -0.234009 -0.229590 -0.123352
v -0.234009 0.001946 -0.425116
v 0.234009 0.001946 -0.425116
v 0.234009 -0.015007 0.053568
v -0.234009 -0.015007 0.053568
v 0.234009 -0.140303 0.007108
v -0.234009 -0.140303 0.007108
v -0.234009 -0.145225 -0.375701
v 0.234009 -0.145225 -0.375701
v -0.234009 -0.019939 -0.422410
v 0.234009 -0.019939 -0.422410
v 0.234009 -0.155617 -0.005309
v -0.234009 -0.155617 -0.005309
v 0.234009 -0.035295 0.050746
v -0.234009 -0.035295 0.050746
vt 0.375000 0.750000
vt 0.625000 0.750000
vt 0.625000 1.000000
vt 0.375000 1.000000
vt 0.125000 0.500000
vt 0.375000 0.500000
vt 0.125000 0.750000
vt 0.375000 0.250000
vt 0.625000 0.250000
vt 0.625000 0.500000
vt 0.676534 0.000000
vt 0.688312 0.000000
vt 0.688312 0.000000
vt 0.676534 0.000000
vt 0.661065 0.000000
vt 0.661065 0.000000
vt 0.649351 0.000000
vt 0.649351 0.000000
vt 0.014279 0.000000
vt 0.025974 0.000000
vt 0.025974 0.000000
vt 0.014279 0.000000
vt 0.095366 0.000000
vt 0.095366 0.000000
vt 1.000000 0.000000
vt 1.000000 0.000000
vt 0.038961 0.000000
vt 0.038961 0.000000
vt 0.636364 0.000000
vt 0.636364 0.000000
vt 0.051948 0.000000
vt 0.051948 0.000000
vt 0.987013 0.000000
vt 0.987013 0.000000
vt 0.623377 0.000000
vt 0.623377 0.000000
vt 0.701299 0.000000
vt 0.701299 0.000000
vt 0.064935 0.000000
vt 0.064935 0.000000
vt 0.610390 0.000000
vt 0.610390 0.000000
vt 0.077922 0.000000
vt 0.077922 0.000000
vt 0.597403 0.000000
vt 0.597403 0.000000
vt 0.974026 0.000000
vt 0.974026 0.000000
vt 0.090909 0.000000
vt 0.090909 0.000000
vt 0.584416 0.000000
vt 0.584416 0.000000
vt 0.714286 0.000000
vt 0.714286 0.000000
vt 0.103896 0.000000
vt 0.103896 0.000000
vt 0.571429 0.000000
vt 0.571429 0.000000
vt 0.116883 0.000000
vt 0.116883 0.000000
vt 0.558442 0.000000
vt 0.558442 0.000000
vt 0.961039 0.000000
vt 0.961039 0.000000
vt 0.129870 0.000000
vt 0.129870 0.000000
vt 0.545455 0.000000
vt 0.545455 0.000000
vt 0.142857 0.000000
vt 0.142857 0.000000
vt 0.727273 0.000000
vt 0.727273 0.000000
vt 0.532468 0.000000
vt 0.532468 0.000000
vt 0.155844 0.000000
vt 0.155844 0.000000
vt 0.519481 0.000000
vt 0.519481 0.000000
vt 0.506494 0.000000
vt 0.506494 0.000000
vt 0.168831 0.000000
vt 0.168831 0.000000
vt 0.948052 0.000000
vt 0.948052 0.000000
vt 0.493506 0.000000
vt 0.493506 0.000000
vt 0.181818 0.000000
vt 0.181818 0.000000
vt 0.480519 0.000000
vt 0.480519 0.000000
vt 0.740260 0.000000
vt 0.740260 0.000000
vt 0.194805 0.000000
vt 0.194805 0.000000
vt 0.467532 0.000000
vt 0.467532 0.000000
vt 0.207792 0.000000
vt 0.207792 0.000000
vt 0.935065 0.000000
vt 0.935065 0.000000
vt 0.454545 0.000000
vt 0.454545 0.000000
vt 0.220779 0.000000
vt 0.220779 0.000000
vt 0.233766 0.000000
vt 0.233766 0.000000
vt 0.441558 0.000000
vt 0.441558 0.000000
vt 0.246753 0.000000
vt 0.246753 0.000000
vt 0.428571 0.000000
vt 0.428571 0.000000
vt 0.753247 0.000000
vt 0.753247 0.000000
vt 0.259740 0.000000
vt 0.259740 0.000000
vt 0.415584 0.000000
vt 0.415584 0.000000
vt 0.272727 0.000000
vt 0.272727 0.000000
vt 0.402597 0.000000
vt 0.402597 0.000000
vt 0.922078 0.000000
vt 0.922078 0.000000
vt 0.285714 0.000000
vt 0.285714 0.000000
vt 0.389610 0.000000
vt 0.389610 0.000000
vt 0.298701 0.000000
vt 0.298701 0.000000
vt 0.376623 0.000000
vt 0.376623 0.000000
vt 0.311688 0.000000
vt 0.311688 0.000000
vt 0.363636 0.000000
vt 0.363636 0.000000
vt 0.324675 0.000000
vt 0.324675 0.000000
vt 0.350649 0.000000
vt 0.350649 0.000000
vt 0.337662 0.000000
vt 0.337662 0.000000
vt 0.766234 0.000000
vt 0.766234 0.000000
vt 0.909091 0.000000
vt 0.909091 0.000000
vt 0.779221 0.000000
vt 0.779221 0.000000
vt 0.896104 0.000000
vt 0.896104 0.000000
vt 0.792208 0.000000
vt 0.792208 0.000000
vt 0.883117 0.000000
vt 0.883117 0.000000
vt 0.805195 0.000000
vt 0.805195 0.000000
vt 0.870130 0.000000
vt 0.870130 0.000000
vt 0.818182 0.000000
vt 0.818182 0.000000
vt 0.857143 0.000000
vt 0.857143 0.000000
vt 0.831169 0.000000
vt 0.831169 0.000000
vt 0.844156 0.000000
vt 0.844156 0.000000
vt 0.625000 0.524474
vt 0.875000 0.500000
vt 0.875000 0.524474
vt 0.875000 0.546747
vt 0.875000 0.635614
vt 0.625000 0.635614
vt 0.625000 0.546747
vt 0.875000 0.657888
vt 0.875000 0.750000
vt 0.625000 0.657888
vt 0.490201 0.116403
vt 0.493567 0.115750
vt 0.497265 0.115236
vt 0.501340 0.114851
vt 0.505840 0.114587
vt 0.510809 0.114435
vt 0.516293 0.114386
vt 0.625000 0.114386
vt 0.625000 0.203253
vt 0.518087 0.203253
vt 0.513390 0.203212
vt 0.508868 0.203081
vt 0.504522 0.202844
vt 0.500355 0.202487
vt 0.496366 0.201993
vt 0.492556 0.201349
vt 0.488927 0.200539
vt 0.485480 0.199549
vt 0.482216 0.198363
vt 0.479135 0.196966
vt 0.476239 0.195343
vt 0.473530 0.193480
vt 0.471259 0.191610
vt 0.469092 0.189523
vt 0.467049 0.187222
vt 0.465145 0.184708
vt 0.463400 0.181983
vt 0.461830 0.179047
vt 0.460452 0.175904
vt 0.459286 0.172553
vt 0.458348 0.168997
vt 0.457657 0.165238
vt 0.457229 0.161277
vt 0.457082 0.157115
vt 0.457201 0.153810
vt 0.457557 0.150599
vt 0.458152 0.147484
vt 0.458987 0.144463
vt 0.460063 0.141536
vt 0.461381 0.138705
vt 0.462942 0.135968
vt 0.464747 0.133326
vt 0.466796 0.130778
vt 0.469092 0.128326
vt 0.471635 0.125968
vt 0.474427 0.123704
vt 0.476758 0.122041
vt 0.479148 0.120568
vt 0.481641 0.119276
vt 0.484284 0.118157
vt 0.487122 0.117202
vt 0.375000 0.000000
vt 0.625000 0.000000
vt 0.625000 0.092112
vt 0.510013 0.092112
vt 0.496757 0.092757
vt 0.484785 0.094621
vt 0.474072 0.097595
vt 0.464592 0.101574
vt 0.456320 0.106449
vt 0.449232 0.112113
vt 0.443303 0.118459
vt 0.438508 0.125379
vt 0.434822 0.132767
vt 0.432220 0.140515
vt 0.430677 0.148515
vt 0.430168 0.156660
vt 0.430845 0.167707
vt 0.432836 0.177781
vt 0.436089 0.186885
vt 0.440546 0.195020
vt 0.446155 0.202189
vt 0.452858 0.208395
vt 0.460602 0.213639
vt 0.469332 0.217925
vt 0.478992 0.221254
vt 0.489527 0.223629
vt 0.500882 0.225052
vt 0.513003 0.225526
vt 0.625000 0.225526
vt 0.465145 0.565292
vt 0.467049 0.562778
vt 0.469092 0.560477
vt 0.471259 0.558390
vt 0.473530 0.556520
vt 0.476239 0.554657
vt 0.479135 0.553034
vt 0.482216 0.551637
vt 0.485480 0.550451
vt 0.488927 0.549461
vt 0.492556 0.548651
vt 0.496366 0.548007
vt 0.500355 0.547513
vt 0.504523 0.547156
vt 0.508868 0.546919
vt 0.513390 0.546788
vt 0.518087 0.546747
vt 0.516293 0.635614
vt 0.510809 0.635565
vt 0.505840 0.635413
vt 0.501341 0.635149
vt 0.497265 0.634764
vt 0.493567 0.634250
vt 0.490201 0.633597
vt 0.487122 0.632798
vt 0.484284 0.631843
vt 0.481641 0.630724
vt 0.479148 0.629432
vt 0.476758 0.627959
vt 0.474427 0.626296
vt 0.471635 0.624032
vt 0.469092 0.621674
vt 0.466796 0.619222
vt 0.464747 0.616674
vt 0.462942 0.614032
vt 0.461381 0.611295
vt 0.460063 0.608464
vt 0.458987 0.605537
vt 0.458152 0.602516
vt 0.457557 0.599401
vt 0.457201 0.596190
vt 0.457082 0.592885
vt 0.457229 0.588724
vt 0.457657 0.584762
vt 0.458348 0.581003
vt 0.459286 0.577447
vt 0.460452 0.574096
vt 0.461830 0.570953
vt 0.463400 0.568017
vt 0.513003 0.524474
vt 0.500882 0.524948
vt 0.489527 0.526371
vt 0.478992 0.528746
vt 0.469332 0.532075
vt 0.460602 0.536361
vt 0.452858 0.541605
vt 0.446155 0.547811
vt 0.440546 0.554980
vt 0.436089 0.563115
vt 0.432836 0.572219
vt 0.430845 0.582293
vt 0.430168 0.593340
vt 0.430677 0.601485
vt 0.432220 0.609485
vt 0.434822 0.617233
vt 0.438508 0.624620
vt 0.443303 0.631541
vt 0.449232 0.637887
vt 0.456320 0.643551
vt 0.464591 0.648426
vt 0.474072 0.652405
vt 0.484785 0.655379
vt 0.496757 0.657243
vt 0.510013 0.657888
vn 0.0000 0.0000 1.0000
vn 0.0000 -1.0000 0.0000
vn 0.0000 0.0000 -1.0000
vn 0.0000 -0.0086 -1.0000
vn 0.0000 -0.0089 1.0000
vn 0.0000 -0.0290 -0.9996
vn 0.0000 0.0391 0.9992
vn 0.0000 -0.0306 0.9995
vn 0.0000 0.0486 -0.9988
vn 0.0000 -0.0544 -0.9985
vn 0.0000 -0.0586 0.9983
vn 0.0000 -0.0855 -0.9963
vn 0.0000 -0.0940 0.9956
vn 0.0000 0.1244 0.9922
vn 0.0000 -0.1227 -0.9924
vn 0.0000 -0.1378 0.9905
vn 0.0000 0.1538 -0.9881
vn 0.0000 -0.1667 -0.9860
vn 0.0000 -0.1903 0.9817
vn 0.0000 -0.2178 -0.9760
vn 0.0000 -0.2513 0.9679
vn 0.0000 0.2199 0.9755
vn 0.0000 -0.2762 -0.9611
vn 0.0000 -0.3188 0.9478
vn 0.0000 -0.3415 -0.9399
vn 0.0000 0.2675 -0.9635
vn 0.0000 -0.3899 0.9209
vn 0.0000 -0.4130 -0.9107
vn 0.0000 -0.4600 0.8879
vn 0.0000 -0.5248 0.8512
vn 0.0000 -0.4888 -0.8724
vn 0.0000 0.3258 0.9454
vn 0.0000 -0.5808 0.8140
vn 0.0000 -0.5666 -0.8240
vn 0.0000 -0.6298 0.7767
vn 0.0000 0.3870 -0.9221
vn 0.0000 -0.6357 -0.7720
vn 0.0000 -0.6799 0.7333
vn 0.0000 -0.6937 -0.7203
vn 0.0000 0.4407 0.8977
vn 0.0000 -0.7301 0.6834
vn 0.0000 -0.7477 -0.6641
vn 0.0000 -0.7973 -0.6036
vn 0.0000 -0.7791 0.6269
vn 0.0000 -0.8421 -0.5393
vn 0.0000 -0.8257 0.5641
vn 0.0000 0.5077 -0.8615
vn 0.0000 -0.8818 -0.4717
vn 0.0000 -0.8687 0.4954
vn 0.0000 -0.9160 -0.4012
vn 0.0000 -0.9066 0.4219
vn 0.0000 0.5607 0.8280
vn 0.0000 -0.9444 -0.3287
vn 0.0000 -0.9386 0.3451
vn 0.0000 -0.9669 -0.2550
vn 0.0000 -0.9639 0.2664
vn 0.0000 -0.9835 -0.1810
vn 0.0000 -0.9822 0.1876
vn 0.0000 -0.9942 -0.1074
vn 0.0000 -0.9939 0.1103
vn 0.0000 -0.9994 -0.0352
vn 0.0000 -0.9994 0.0358
vn 0.0000 0.6243 -0.7812
vn 0.0000 0.6793 0.7338
vn 0.0000 0.7307 -0.6827
vn 0.0000 0.7876 0.6161
vn 0.0000 0.8220 -0.5695
vn 0.0000 0.8770 0.4805
vn 0.0000 0.8948 -0.4465
vn 0.0000 0.9417 0.3364
vn 0.0000 0.9480 -0.3184
vn 0.0000 0.9810 0.1940
vn 0.0000 0.9819 -0.1894
vn 0.0000 0.9981 -0.0623
vn 0.0000 0.9981 0.0611
vn 0.0000 1.0000 0.0000
vn -1.0000 -0.0000 0.0000
vn 1.0000 -0.0000 0.0000
usemtl a
s off
f 4/1/1 3/2/1 7/3/1 8/4/1
f 6/5/2 2/6/2 4/1/2 8/7/2
f 6/8/3 5/9/3 1/10/3 2/6/3
f 24/11/3 15/12/3 9/13/3 22/14/3
f 36/15/1 33/16/1 46/17/1 45/18/1
f 58/19/3 49/20/3 50/21/3 57/22/3
f 70/23/1 67/24/1 78/25/1 77/26/1
f 50/21/4 49/20/4 84/27/4 83/28/4
f 95/29/5 45/18/5 46/17/5 96/30/5
f 83/28/6 84/27/6 106/31/6 108/32/6
f 117/33/7 77/26/7 78/25/7 118/34/7
f 123/35/8 95/29/8 96/30/8 125/36/8
f 9/13/9 15/12/9 132/37/9 131/38/9
f 108/32/10 106/31/10 138/39/10 137/40/10
f 147/41/11 123/35/11 125/36/11 148/42/11
f 137/40/12 138/39/12 152/43/12 151/44/12
f 153/45/13 147/41/13 148/42/13 154/46/13
f 117/33/14 118/34/14 65/47/14 64/48/14
f 151/44/15 152/43/15 160/49/15 159/50/15
f 163/51/16 153/45/16 154/46/16 164/52/16
f 113/53/17 114/54/17 131/38/17 132/37/17
f 34/55/18 35/56/18 159/50/18 160/49/18
f 12/57/19 163/51/19 164/52/19 14/58/19
f 35/56/20 34/55/20 23/59/20 21/60/20
f 14/58/21 43/61/21 44/62/21 12/57/21
f 64/48/22 65/47/22 55/63/22 56/64/22
f 21/60/23 23/59/23 74/65/23 73/66/23
f 90/67/24 44/62/24 43/61/24 92/68/24
f 73/66/25 74/65/25 94/69/25 93/70/25
f 114/54/26 113/53/26 107/71/26 105/72/26
f 120/73/27 90/67/27 92/68/27 121/74/27
f 93/70/28 94/69/28 127/75/28 128/76/28
f 135/77/29 120/73/29 121/74/29 136/78/29
f 143/79/30 135/77/30 136/78/30 144/80/30
f 128/76/31 127/75/31 146/81/31 145/82/31
f 56/64/32 55/63/32 17/83/32 18/84/32
f 155/85/33 143/79/33 144/80/33 156/86/33
f 145/82/34 146/81/34 158/87/34 157/88/34
f 161/89/35 155/85/35 156/86/35 162/90/35
f 85/91/36 86/92/36 105/72/36 107/71/36
f 11/93/37 13/94/37 157/88/37 158/87/37
f 161/89/38 162/90/38 29/95/38 30/96/38
f 13/94/39 11/93/39 47/97/39 48/98/39
f 25/99/40 18/84/40 17/83/40 26/100/40
f 38/101/41 37/102/41 30/96/41 29/95/41
f 48/98/42 47/97/42 42/103/42 41/104/42
f 41/104/43 42/103/43 51/105/43 52/106/43
f 62/107/44 61/108/44 37/102/44 38/101/44
f 52/106/45 51/105/45 69/109/45 68/110/45
f 61/108/46 62/107/46 79/111/46 80/112/46
f 86/92/47 85/91/47 59/113/47 60/114/47
f 68/110/48 69/109/48 91/115/48 89/116/48
f 100/117/49 99/118/49 80/112/49 79/111/49
f 89/116/50 91/115/50 103/119/50 104/120/50
f 112/121/51 111/122/51 99/118/51 100/117/51
f 25/99/52 26/100/52 63/123/52 66/124/52
f 104/120/53 103/119/53 122/125/53 119/126/53
f 134/127/54 133/128/54 111/122/54 112/121/54
f 119/126/55 122/125/55 140/129/55 139/130/55
f 150/131/56 149/132/56 133/128/56 134/127/56
f 19/133/57 20/134/57 139/130/57 140/129/57
f 149/132/58 150/131/58 27/135/58 28/136/58
f 20/134/59 19/133/59 16/137/59 10/138/59
f 32/139/60 31/140/60 28/136/60 27/135/60
f 10/138/61 16/137/61 40/141/61 39/142/61
f 31/140/62 32/139/62 39/142/62 40/141/62
f 60/114/63 59/113/63 54/143/63 53/144/63
f 71/145/64 66/124/64 63/123/64 72/146/64
f 75/147/65 53/144/65 54/143/65 76/148/65
f 72/146/66 81/149/66 82/150/66 71/145/66
f 87/151/67 75/147/67 76/148/67 88/152/67
f 98/153/68 82/150/68 81/149/68 97/154/68
f 101/155/69 87/151/69 88/152/69 102/156/69
f 109/157/70 98/153/70 97/154/70 110/158/70
f 115/159/71 101/155/71 102/156/71 116/160/71
f 124/161/72 109/157/72 110/158/72 126/162/72
f 129/163/73 115/159/73 116/160/73 130/164/73
f 141/165/74 129/163/74 130/164/74 142/166/74
f 124/161/75 126/162/75 141/165/75 142/166/75
f 70/167/76 1/10/76 5/168/76 67/169/76
f 57/170/76 33/171/76 36/172/76 58/173/76
f 22/174/76 7/175/76 3/2/76 24/176/76
f 14/177/77 164/178/77 154/179/77 148/180/77 125/181/77 96/182/77 46/183/77 33/184/77 57/185/77 50/186/77 83/187/77 108/188/77 137/189/77 151/190/77 159/191/77 35/192/77 21/193/77 73/194/77 93/195/77 128/196/77 145/197/77 157/198/77 13/199/77 48/200/77 41/201/77 52/202/77 68/203/77 89/204/77 104/205/77 119/206/77 139/207/77 20/208/77 10/209/77 39/210/77 32/211/77 27/212/77 150/213/77 134/214/77 112/215/77 100/216/77 79/217/77 62/218/77 38/219/77 29/220/77 162/221/77 156/222/77 144/223/77 136/224/77 121/225/77 92/226/77 43/227/77
f 5/9/77 6/8/77 8/228/77 7/229/77 22/230/77 9/231/77 131/232/77 114/233/77 105/234/77 86/235/77 60/236/77 53/237/77 75/238/77 87/239/77 101/240/77 115/241/77 129/242/77 141/243/77 126/244/77 110/245/77 97/246/77 81/247/77 72/248/77 63/249/77 26/250/77 17/251/77 55/252/77 65/253/77 118/254/77 78/255/77 67/256/77
f 51/257/78 42/258/78 47/259/78 11/260/78 158/261/78 146/262/78 127/263/78 94/264/78 74/265/78 23/266/78 34/267/78 160/268/78 152/269/78 138/270/78 106/271/78 84/272/78 49/273/78 58/173/78 36/172/78 45/274/78 95/275/78 123/276/78 147/277/78 153/278/78 163/279/78 12/280/78 44/281/78 90/282/78 120/283/78 135/284/78 143/285/78 155/286/78 161/287/78 30/288/78 37/289/78 61/290/78 80/291/78 99/292/78 111/293/78 133/294/78 149/295/78 28/296/78 31/297/78 40/298/78 16/299/78 19/300/78 140/301/78 122/302/78 103/303/78 91/304/78 69/305/78
f 3/2/78 4/1/78 2/6/78 1/10/78 70/167/78 77/306/78 117/307/78 64/308/78 56/309/78 18/310/78 25/311/78 66/312/78 71/313/78 82/314/78 98/315/78 109/316/78 124/317/78 142/318/78 130/319/78 116/320/78 102/321/78 88/322/78 76/323/78 54/324/78 59/325/78 85/326/78 107/327/78 113/328/78 132/329/78 15/330/78 24/176/78
